<svg xmlns="http://www.w3.org/2000/svg" viewBox="0 0 1200 380" role="img" aria-label="Manga pages transforming into a cinematic city shot">
  <defs>
    <linearGradient id="sky" x1="0" x2="1" y1="0" y2="1">
      <stop offset="0" stop-color="#111827"/>
      <stop offset="0.46" stop-color="#2b2447"/>
      <stop offset="0.72" stop-color="#ef7d22"/>
      <stop offset="1" stop-color="#f8c66d"/>
    </linearGradient>
    <linearGradient id="paper" x1="0" x2="1">
      <stop offset="0" stop-color="#f8fafc"/>
      <stop offset="1" stop-color="#cbd5e1"/>
    </linearGradient>
    <linearGradient id="film" x1="0" x2="1">
      <stop offset="0" stop-color="#070b16"/>
      <stop offset="0.52" stop-color="#172033"/>
      <stop offset="1" stop-color="#080b14"/>
    </linearGradient>
    <radialGradient id="glow" cx="78%" cy="25%" r="60%">
      <stop offset="0" stop-color="#ffb45f" stop-opacity=".65"/>
      <stop offset=".5" stop-color="#7c3aed" stop-opacity=".16"/>
      <stop offset="1" stop-color="#020617" stop-opacity="0"/>
    </radialGradient>
    <filter id="softShadow" x="-30%" y="-30%" width="160%" height="160%">
      <feDropShadow dx="0" dy="18" stdDeviation="14" flood-color="#000" flood-opacity=".45"/>
    </filter>
  </defs>

  <rect width="1200" height="380" rx="28" fill="#050816"/>
  <rect width="1200" height="380" rx="28" fill="url(#glow)"/>
  <g opacity=".25">
    <path d="M0 48h1200M0 140h1200M0 232h1200M0 324h1200" stroke="#64748b" stroke-width="1"/>
    <path d="M120 0v380M318 0v380M516 0v380M714 0v380M912 0v380M1110 0v380" stroke="#64748b" stroke-width="1"/>
  </g>

  <g transform="translate(685 46) rotate(4)" filter="url(#softShadow)">
    <rect x="0" y="0" width="450" height="275" rx="18" fill="url(#film)" stroke="#475569" stroke-width="3"/>
    <g fill="#111827">
      <rect x="20" y="18" width="22" height="20" rx="4"/>
      <rect x="60" y="18" width="22" height="20" rx="4"/>
      <rect x="100" y="18" width="22" height="20" rx="4"/>
      <rect x="140" y="18" width="22" height="20" rx="4"/>
      <rect x="180" y="18" width="22" height="20" rx="4"/>
      <rect x="220" y="18" width="22" height="20" rx="4"/>
      <rect x="260" y="18" width="22" height="20" rx="4"/>
      <rect x="300" y="18" width="22" height="20" rx="4"/>
      <rect x="340" y="18" width="22" height="20" rx="4"/>
      <rect x="380" y="18" width="22" height="20" rx="4"/>
      <rect x="20" y="237" width="22" height="20" rx="4"/>
      <rect x="60" y="237" width="22" height="20" rx="4"/>
      <rect x="100" y="237" width="22" height="20" rx="4"/>
      <rect x="140" y="237" width="22" height="20" rx="4"/>
      <rect x="180" y="237" width="22" height="20" rx="4"/>
      <rect x="220" y="237" width="22" height="20" rx="4"/>
      <rect x="260" y="237" width="22" height="20" rx="4"/>
      <rect x="300" y="237" width="22" height="20" rx="4"/>
      <rect x="340" y="237" width="22" height="20" rx="4"/>
      <rect x="380" y="237" width="22" height="20" rx="4"/>
    </g>
    <rect x="48" y="48" width="354" height="178" rx="14" fill="url(#sky)"/>
    <circle cx="342" cy="76" r="32" fill="#fed7aa" opacity=".9"/>
    <path d="M62 211c62-42 118-42 174-8 58-53 115-57 166 3v20H62z" fill="#0f172a" opacity=".68"/>
    <g fill="#111827">
      <rect x="286" y="124" width="18" height="102"/>
      <rect x="314" y="104" width="22" height="122"/>
      <rect x="348" y="84" width="26" height="142"/>
      <rect x="382" y="132" width="14" height="94"/>
      <rect x="251" y="150" width="14" height="76"/>
    </g>
    <g transform="translate(172 84)">
      <path d="M56 64c-23 3-40 26-40 62h96c0-38-18-59-43-62z" fill="#111827"/>
      <ellipse cx="64" cy="42" rx="34" ry="38" fill="#1f2937"/>
      <path d="M28 40c8-31 54-42 78-14 8 10 10 25 5 40-24-11-55-14-83-26z" fill="#060914"/>
      <path d="M30 86c20 18 47 19 70 0l17 40H12z" fill="#0b1120"/>
      <path d="M55 24c14 11 28 19 46 22" stroke="#334155" stroke-width="4" fill="none" stroke-linecap="round"/>
    </g>
    <g font-family="Inter, Arial, sans-serif" font-size="16" font-weight="800" fill="#fff">
      <circle cx="386" cy="62" r="6" fill="#ff4b36"/>
      <text x="398" y="68">REC</text>
      <text x="310" y="215" font-size="14" opacity=".9">00:00:12:15</text>
    </g>
  </g>

  <g transform="translate(368 42) rotate(-8)" filter="url(#softShadow)">
    <rect x="0" y="0" width="350" height="250" rx="18" fill="url(#paper)" stroke="#f8fafc" stroke-width="4"/>
    <g stroke="#475569" stroke-width="3" fill="none">
      <rect x="24" y="24" width="92" height="68" rx="6"/>
      <rect x="130" y="24" width="82" height="68" rx="6"/>
      <rect x="226" y="24" width="100" height="68" rx="6"/>
      <rect x="24" y="108" width="145" height="54" rx="6"/>
      <rect x="183" y="108" width="143" height="54" rx="6"/>
      <rect x="24" y="178" width="80" height="46" rx="6"/>
      <rect x="118" y="178" width="96" height="46" rx="6"/>
      <rect x="228" y="178" width="98" height="46" rx="6"/>
    </g>
    <g stroke="#0f172a" stroke-width="3" fill="none" stroke-linecap="round">
      <path d="M42 76c16-32 36-32 56-2M148 74c18-26 34-28 50-4M238 73c24-34 52-32 76 1"/>
      <path d="M44 150c38-30 72-30 105 0M205 150c28-32 64-32 94 0"/>
      <path d="M44 209c12-20 25-20 38 0M140 210c18-24 34-24 52 0M250 208c18-22 36-22 54 0"/>
    </g>
    <g fill="#0f172a" opacity=".32">
      <circle cx="77" cy="54" r="12"/>
      <circle cx="167" cy="50" r="10"/>
      <circle cx="272" cy="52" r="15"/>
      <circle cx="92" cy="132" r="14"/>
      <circle cx="252" cy="132" r="13"/>
    </g>
  </g>

  <g transform="translate(288 153)" filter="url(#softShadow)">
    <path d="M42 86c-18 7-30 29-33 68h94c-3-39-14-61-33-68z" fill="#0b1120"/>
    <ellipse cx="58" cy="54" rx="36" ry="40" fill="#1f2937"/>
    <path d="M25 48c4-41 50-63 78-28 12 15 13 31 5 52-31-13-59-16-83-24z" fill="#020617"/>
    <path d="M39 95c13 14 28 19 45 0l18 58H15z" fill="#111827"/>
  </g>

  <g transform="translate(742 164)" opacity=".95">
    <path d="M0 32h78" stroke="#f8fafc" stroke-width="12" stroke-linecap="round"/>
    <path d="M52 0l44 32-44 32z" fill="#f8fafc"/>
  </g>

  <g opacity=".35" fill="none" stroke="#f59e0b" stroke-width="2">
    <path d="M220 58l8 22 22 8-22 8-8 22-8-22-22-8 22-8z"/>
    <path d="M1048 298l6 16 16 6-16 6-6 16-6-16-16-6 16-6z"/>
  </g>
</svg>
